<?xml version="1.0" standalone="no"?>
<!DOCTYPE svg PUBLIC "-//W3C//DTD SVG 20010904//EN"
 "http://www.w3.org/TR/2001/REC-SVG-20010904/DTD/svg10.dtd">
<svg version="1.0" xmlns="http://www.w3.org/2000/svg"
 width="1024.000000pt" height="1024.000000pt" viewBox="0 0 1024.000000 1024.000000"
 preserveAspectRatio="xMidYMid meet">

<g transform="translate(0.000000,1024.000000) scale(0.100000,-0.100000)"
fill="#000000" stroke="none">
<path d="M3641 6189 c-438 -28 -731 -112 -988 -286 -160 -108 -325 -264 -1143
-1080 l-855 -853 631 0 630 0 580 573 c318 314 602 590 629 613 223 182 415
249 790 274 90 6 781 10 1719 10 l1570 0 100 97 c56 54 230 225 388 380 l287
283 -2107 -1 c-1159 -1 -2163 -5 -2231 -10z"/>
<path d="M7140 5085 l-1115 -1115 664 0 663 0 1117 1115 1116 1115 -665 0
-665 0 -1115 -1115z"/>
<path d="M3948 5219 c-216 -12 -373 -47 -499 -110 -116 -58 -224 -156 -708
-642 l-490 -492 580 -3 581 -2 196 198 c209 211 245 237 363 269 58 15 164 18
1155 23 l1091 5 389 382 389 383 -1455 -2 c-800 0 -1517 -5 -1592 -9z"/>
<path d="M8180 4310 c0 -30 1 -30 55 -30 l55 0 0 -155 0 -155 35 0 35 0 0 155
0 155 60 0 60 0 0 30 0 30 -150 0 -150 0 0 -30z"/>
<path d="M8540 4156 l0 -186 30 0 29 0 3 138 3 137 50 -138 c49 -137 49 -138
79 -135 28 3 31 9 75 133 l46 130 3 -132 3 -133 34 0 35 0 0 185 0 185 -47 0
-48 0 -49 -141 c-26 -77 -51 -137 -55 -134 -3 4 -27 66 -52 138 l-46 132 -47
3 -46 3 0 -185z"/>
</g>
</svg>
